<?xml version="1.0" standalone="no"?><!DOCTYPE svg PUBLIC "-//W3C//DTD SVG 1.1//EN" "http://www.w3.org/Graphics/SVG/1.1/DTD/svg11.dtd"><svg viewBox="0 0 24 24" version="1.1" xmlns="http://www.w3.org/2000/svg" xmlns:xlink="http://www.w3.org/1999/xlink"  ><defs xmlns="http://www.w3.org/1999/xhtml"></defs><g id="access-alarms"><path d="M22,5.7l-4.6-3.9l-1.3,1.5l4.6,3.9L22,5.7z M7.9,3.4L6.6,1.9L2,5.7l1.3,1.5L7.9,3.4z M12.5,8H11v6l4.7,2.9l0.8-1.2l-4-2.4V8z M12,4c-5,0-9,4-9,9c0,5,4,9,9,9s9-4,9-9C21,8,17,4,12,4z M12,20c-3.9,0-7-3.1-7-7c0-3.9,3.1-7,7-7c3.9,0,7,3.1,7,7C19,16.9,15.9,20,12,20z"/></g></svg>