<?xml version="1.0" standalone="no"?><!DOCTYPE svg PUBLIC "-//W3C//DTD SVG 1.1//EN" "http://www.w3.org/Graphics/SVG/1.1/DTD/svg11.dtd"><svg viewBox="0 0 24 24" version="1.1" xmlns:xlink="http://www.w3.org/1999/xlink"   xmlns="http://www.w3.org/2000/svg"><defs xmlns="http://www.w3.org/1999/xhtml"></defs><defs xmlns="http://www.w3.org/1999/xhtml"><style type="text/css"></style></defs><g id="account-box"><path d="M3,5l0,14c0,1.1,0.9,2,2,2h14c1.1,0,2-0.9,2-2V5c0-1.1-0.9-2-2-2H5C3.9,3,3,3.9,3,5z M15,9c0,1.7-1.3,3-3,3c-1.7,0-3-1.3-3-3c0-1.7,1.3-3,3-3C13.7,6,15,7.3,15,9z M6,17c0-2,4-3.1,6-3.1s6,1.1,6,3.1v1H6V17z"/></g></svg>