<?xml version="1.0" standalone="no"?><!DOCTYPE svg PUBLIC "-//W3C//DTD SVG 1.1//EN" "http://www.w3.org/Graphics/SVG/1.1/DTD/svg11.dtd"><svg viewBox="0 0 24 24" version="1.1" xmlns="http://www.w3.org/2000/svg" xmlns:xlink="http://www.w3.org/1999/xlink"  ><defs xmlns="http://www.w3.org/1999/xhtml"></defs><g id="circles"><path d="M16.7,15c-0.8,2.3-3,4-5.7,4c-3.3,0-6-2.7-6-6c0-2.6,1.7-4.8,4-5.7C9,7.2,9,7.1,9,7c0-1,0.2-2,0.5-2.9C5.3,4.8,2,8.5,2,13c0,5,4,9,9,9c4.5,0,8.2-3.3,8.9-7.5C19,14.8,18,15,17,15C16.9,15,16.8,15,16.7,15z"/><path d="M17,1c-3.3,0-6,2.7-6,6s2.7,6,6,6c3.3,0,6-2.7,6-6S20.3,1,17,1z M17,10c-1.7,0-3-1.3-3-3s1.3-3,3-3c1.7,0,3,1.3,3,3S18.7,10,17,10z"/></g></svg>