<?xml version="1.0" standalone="no"?><!DOCTYPE svg PUBLIC "-//W3C//DTD SVG 1.1//EN" "http://www.w3.org/Graphics/SVG/1.1/DTD/svg11.dtd"><svg viewBox="0 0 24 24" version="1.1" xmlns="http://www.w3.org/2000/svg" xmlns:xlink="http://www.w3.org/1999/xlink"  ><defs xmlns="http://www.w3.org/1999/xhtml"></defs><g id="cloud-circle"><path d="M12,2C6.5,2,2,6.5,2,12s4.5,10,10,10c5.5,0,10-4.5,10-10S17.5,2,12,2z M17,15H8H7.5C6.1,15,5,13.9,5,12.5S6.1,10,7.5,10h0.6c0.4-1.7,2-3,3.9-3c2.2,0,4,1.8,4,4h1c1.1,0,2,0.9,2,2S18.1,15,17,15z"/></g></svg>