<?xml version="1.0" standalone="no"?><!DOCTYPE svg PUBLIC "-//W3C//DTD SVG 1.1//EN" "http://www.w3.org/Graphics/SVG/1.1/DTD/svg11.dtd"><svg viewBox="0 0 24 24" version="1.1" xmlns="http://www.w3.org/2000/svg" xmlns:xlink="http://www.w3.org/1999/xlink"  ><defs xmlns="http://www.w3.org/1999/xhtml"> </defs><g id="content-paste"><path d="M19,2h-4.2c-0.4-1.2-1.5-2-2.8-2c-1.3,0-2.4,0.8-2.8,2H5C3.9,2,3,2.9,3,4v16c0,1.1,0.9,2,2,2h14c1.1,0,2-0.9,2-2V4C21,2.9,20.1,2,19,2z M12,2c0.6,0,1,0.4,1,1s-0.4,1-1,1c-0.6,0-1-0.4-1-1S11.4,2,12,2z M19,20H5V4h2v3h10V4h2V20z"/></g></svg>