<?xml version="1.0" standalone="no"?><!DOCTYPE svg PUBLIC "-//W3C//DTD SVG 1.1//EN" "http://www.w3.org/Graphics/SVG/1.1/DTD/svg11.dtd"><svg viewBox="0 0 24 24" version="1.1" xmlns="http://www.w3.org/2000/svg" xmlns:xlink="http://www.w3.org/1999/xlink"  ><defs xmlns="http://www.w3.org/1999/xhtml"> </defs><g id="directions"><path d="M21.7,11.3l-9-9l0,0c-0.4-0.4-1-0.4-1.4,0l-9,9c-0.4,0.4-0.4,1,0,1.4l9,9c0,0,0,0,0,0c0.4,0.4,1,0.4,1.4,0l9-9C22.1,12.3,22.1,11.7,21.7,11.3z M14,14.5V12h-4v3H8v-4c0-0.6,0.4-1,1-1h5V7.5l3.5,3.5L14,14.5z"/></g></svg>