<?xml version="1.0" standalone="no"?><!DOCTYPE svg PUBLIC "-//W3C//DTD SVG 1.1//EN" "http://www.w3.org/Graphics/SVG/1.1/DTD/svg11.dtd"><svg viewBox="0 0 24 24" version="1.1" xmlns="http://www.w3.org/2000/svg" xmlns:xlink="http://www.w3.org/1999/xlink"  ><defs xmlns="http://www.w3.org/1999/xhtml"> </defs><g id="directionswalk"><path d="M14,3.8c1,0,1.8-0.8,1.8-1.8c0-1-0.8-1.8-1.8-1.8c-1,0-1.8,0.8-1.8,1.8C12.2,3,13,3.8,14,3.8z M14.1,10H19V8.2h-3.6l-2-3.3C13.1,4.4,12.5,4,11.9,4c-0.2,0-0.3,0-0.5,0.1L6,5.8V11h1.8V7.3l2.1-0.7L6,22h1.8l2.9-8.1L13,17v5h1.8v-6.4l-2.5-4.5L13,8.2L14.1,10z"/></g></svg>