<?xml version="1.0" standalone="no"?><!DOCTYPE svg PUBLIC "-//W3C//DTD SVG 1.1//EN" "http://www.w3.org/Graphics/SVG/1.1/DTD/svg11.dtd"><svg viewBox="0 0 24 24" version="1.1" xmlns="http://www.w3.org/2000/svg" xmlns:xlink="http://www.w3.org/1999/xlink"  ><defs xmlns="http://www.w3.org/1999/xhtml"> </defs><g id="directions-car"><path d="M18.9,6c-0.2-0.6-0.8-1-1.4-1h-11C5.8,5,5.3,5.4,5.1,6L3,12v8c0,0.6,0.4,1,1,1h1c0.6,0,1-0.4,1-1v-1h12v1c0,0.6,0.4,1,1,1h1c0.6,0,1-0.4,1-1v-8L18.9,6z M6.5,16C5.7,16,5,15.3,5,14.5S5.7,13,6.5,13C7.3,13,8,13.7,8,14.5S7.3,16,6.5,16z M17.5,16c-0.8,0-1.5-0.7-1.5-1.5s0.7-1.5,1.5-1.5c0.8,0,1.5,0.7,1.5,1.5S18.3,16,17.5,16z M5,11l1.5-4.5h11L19,11H5z"/></g></svg>