<?xml version="1.0" standalone="no"?><!DOCTYPE svg PUBLIC "-//W3C//DTD SVG 1.1//EN" "http://www.w3.org/Graphics/SVG/1.1/DTD/svg11.dtd"><svg viewBox="0 0 24 24" version="1.1" xmlns="http://www.w3.org/2000/svg" xmlns:xlink="http://www.w3.org/1999/xlink"  ><defs xmlns="http://www.w3.org/1999/xhtml"> </defs><g id="domain"><path d="M12,7V3H2v18h20V7H12z M6,19H4v-2h2V19z M6,15H4v-2h2V15z M6,11H4V9h2V11z M6,7H4V5h2V7z M10,19H8v-2h2V19z M10,15H8v-2h2V15z M10,11H8V9h2V11z M10,7H8V5h2V7z M20,19h-8v-2h2v-2h-2v-2h2v-2h-2V9h8V19z M18,11h-2v2h2V11z M18,15h-2v2h2V15z"/></g></svg>