<?xml version="1.0" standalone="no"?><!DOCTYPE svg PUBLIC "-//W3C//DTD SVG 1.1//EN" "http://www.w3.org/Graphics/SVG/1.1/DTD/svg11.dtd"><svg viewBox="0 0 24 24" version="1.1" xmlns="http://www.w3.org/2000/svg" xmlns:xlink="http://www.w3.org/1999/xlink"  ><defs xmlns="http://www.w3.org/1999/xhtml"> </defs><g id="hangout-video-off"><path d="M20,4H7.8l4,4H14v2.2l0.6,0.6L18,8v6.2l4,4c0-0.1,0-0.1,0-0.2V6C22,4.9,21.1,4,20,4z M2.3,1L1,2.3l2,2C2.4,4.6,2,5.3,2,6v12c0,1.1,0.9,2,2,2h14.7l2,2l1.3-1.3L2.3,1z M6,8h0.7l7.3,7.3V16H6V8z"/></g></svg>