<?xml version="1.0" standalone="no"?><!DOCTYPE svg PUBLIC "-//W3C//DTD SVG 1.1//EN" "http://www.w3.org/Graphics/SVG/1.1/DTD/svg11.dtd"><svg viewBox="0 0 24 24" version="1.1" xmlns="http://www.w3.org/2000/svg" xmlns:xlink="http://www.w3.org/1999/xlink"  ><defs xmlns="http://www.w3.org/1999/xhtml"> </defs><g id="link"><path d="M8,13h8v-2H8V13z M3.9,12c0-2.3,1.8-4.1,4.1-4.1h3V6H8c-3.3,0-6,2.7-6,6s2.7,6,6,6h3v-1.9H8C5.7,16.1,3.9,14.3,3.9,12z M16,6h-3v1.9h3c2.3,0,4.1,1.8,4.1,4.1c0,2.3-1.8,4.1-4.1,4.1h-3V18h3c3.3,0,6-2.7,6-6S19.3,6,16,6z"/></g></svg>