<?xml version="1.0" standalone="no"?><!DOCTYPE svg PUBLIC "-//W3C//DTD SVG 1.1//EN" "http://www.w3.org/Graphics/SVG/1.1/DTD/svg11.dtd"><svg viewBox="0 0 24 24" version="1.1" xmlns="http://www.w3.org/2000/svg" xmlns:xlink="http://www.w3.org/1999/xlink"  ><defs xmlns="http://www.w3.org/1999/xhtml"> </defs><g id="live-help"><path d="M19,2H5C3.9,2,3,2.9,3,4v14c0,1.1,0.9,2,2,2h4l3,3l3-3h4c1.1,0,2-0.9,2-2V4C21,2.9,20.1,2,19,2z M13,18h-2v-2h2V18z M15.1,10.3l-0.9,0.9C13.4,11.9,13,12.5,13,14h-2v-0.5c0-1.1,0.4-2.1,1.2-2.8l1.2-1.3C13.8,9.1,14,8.6,14,8c0-1.1-0.9-2-2-2c-1.1,0-2,0.9-2,2H8c0-2.2,1.8-4,4-4s4,1.8,4,4C16,8.9,15.6,9.7,15.1,10.3z"/></g></svg>