<?xml version="1.0" standalone="no"?><!DOCTYPE svg PUBLIC "-//W3C//DTD SVG 1.1//EN" "http://www.w3.org/Graphics/SVG/1.1/DTD/svg11.dtd"><svg viewBox="0 0 24 24" version="1.1" xmlns="http://www.w3.org/2000/svg" xmlns:xlink="http://www.w3.org/1999/xlink"  ><defs xmlns="http://www.w3.org/1999/xhtml"> </defs><g id="location-city"><path d="M15,11V5l-3-3L9,5v2H3v14h18V11H15z M7,19H5v-2h2V19z M7,15H5v-2h2V15z M7,11H5V9h2V11z M13,19h-2v-2h2V19z M13,15h-2v-2h2V15z M13,11h-2V9h2V11z M13,7h-2V5h2V7z M19,19h-2v-2h2V19z M19,15h-2v-2h2V15z"/></g></svg>