<?xml version="1.0" standalone="no"?><!DOCTYPE svg PUBLIC "-//W3C//DTD SVG 1.1//EN" "http://www.w3.org/Graphics/SVG/1.1/DTD/svg11.dtd"><svg viewBox="0 0 24 24" version="1.1" xmlns="http://www.w3.org/2000/svg" xmlns:xlink="http://www.w3.org/1999/xlink"  ><defs xmlns="http://www.w3.org/1999/xhtml"> </defs><g id="location-searching"><path d="M20.9,11c-0.5-4.2-3.8-7.5-7.9-7.9V1h-2v2.1C6.8,3.5,3.5,6.8,3.1,11H1v2h2.1c0.5,4.2,3.8,7.5,7.9,7.9V23h2v-2.1c4.2-0.5,7.5-3.8,7.9-7.9H23v-2H20.9z M12,19c-3.9,0-7-3.1-7-7c0-3.9,3.1-7,7-7c3.9,0,7,3.1,7,7C19,15.9,15.9,19,12,19z"/></g></svg>