<?xml version="1.0" encoding="utf-8"?>
<!-- Generator: Adobe Illustrator 16.0.0, SVG Export Plug-In . SVG Version: 6.00 Build 0)  -->
<!DOCTYPE svg PUBLIC "-//W3C//DTD SVG 1.1//EN" "http://www.w3.org/Graphics/SVG/1.1/DTD/svg11.dtd">
<svg version="1.1" id="Layer_1" xmlns="http://www.w3.org/2000/svg" xmlns:xlink="http://www.w3.org/1999/xlink" x="0px" y="0px"
	 width="300px" height="64px" viewBox="0 0 300 64" enable-background="new 0 0 300 64" xml:space="preserve">
<g>
	<path fill="#FFFFFF" d="M21.309,10.508c1.518,0,2.816,0.552,3.897,1.653c1.08,1.103,1.621,2.411,1.621,3.927v37.195
		c0,1.471-0.541,2.744-1.621,3.823c-1.081,1.08-2.38,1.619-3.897,1.619H7.582V29.795h4.829L7.582,15.331v-4.822H21.309z
		 M21.999,16.027c0-0.459-0.231-0.69-0.69-0.69h-8.898v38.56h8.898c0.459,0,0.69-0.206,0.69-0.62V16.027z"/>
	<path fill="#FFFFFF" d="M44.003,15.268v14.417h10.071v4.829H44.003v19.383h12.555v4.829H39.175V10.439h17.383v4.829H44.003z"/>
	<path fill="#FFFFFF" d="M90.978,10.439l-7.726,48.286H76.63l-7.726-48.286h4.897l6.139,38.629l6.14-38.629H90.978z"/>
	<path fill="#FFFFFF" d="M116.707,20.993V15.88c0-0.454-0.23-0.682-0.69-0.682h-7.519c-0.46,0-0.69,0.232-0.69,0.693v13.168
		c0,0.324,0.138,0.532,0.414,0.625h7.794c1.563,0,2.874,0.54,3.932,1.618c1.057,1.078,1.586,2.375,1.586,3.888v18.099
		c0,1.376-0.438,2.569-1.311,3.578c-0.874,1.01-1.978,1.63-3.311,1.858h-9.313c-1.334-0.229-2.438-0.851-3.311-1.862
		c-0.874-1.011-1.311-2.208-1.311-3.587v-5.174h4.829v5.113c0,0.455,0.229,0.681,0.69,0.681h7.519c0.459,0,0.69-0.228,0.69-0.688
		V35.133c0-0.32-0.138-0.526-0.414-0.619h-7.794c-1.518,0-2.817-0.541-3.897-1.625c-1.081-1.084-1.621-2.387-1.621-3.909V15.835
		c0-1.383,0.437-2.582,1.311-3.597c0.873-1.014,1.977-1.637,3.311-1.868h9.313c1.333,0.231,2.437,0.852,3.311,1.863
		c0.873,1.012,1.311,2.207,1.311,3.587v5.173H116.707z"/>
	<path fill="#FFFFFF" d="M138.711,58.726h-4.829V10.439h4.829V58.726z"/>
	<path fill="#FFFFFF" d="M170.304,34.514v18.763c0,1.379-0.438,2.576-1.311,3.587c-0.874,1.012-1.978,1.633-3.311,1.862h-10.002
		c-1.335-0.229-2.438-0.852-3.312-1.864c-0.874-1.014-1.311-2.211-1.311-3.593V15.827c0-1.382,0.437-2.579,1.311-3.592
		c0.873-1.013,1.977-1.634,3.312-1.865h10.002c1.333,0.231,2.437,0.852,3.311,1.863c0.873,1.012,1.311,2.207,1.311,3.587v5.036
		h-4.828V15.88c0-0.454-0.23-0.682-0.689-0.682h-8.209c-0.46,0-0.689,0.23-0.689,0.689v37.32c0,0.459,0.229,0.688,0.689,0.688h8.209
		c0.459,0,0.689-0.228,0.689-0.688V34.514h-5.726v-4.829h10.554V34.514z"/>
	<path fill="#FFFFFF" d="M201.966,10.439v48.286h-4.828h-0.139l-9.519-31.869v31.869h-4.829V10.439h4.829v0.069l9.657,31.869V10.439
		H201.966z"/>
	<path fill="#FFFFFF" d="M219.142,52.725v6.001h-4.829v-6.001H219.142z"/>
	<path fill="#FFFFFF" d="M258.805,10.439v48.286h-4.829V24.374l-5.38,30.834h-6.554l-5.38-30.834v34.352h-4.829V10.439h7.381
		l6.14,35.731l6.139-35.731H258.805z"/>
	<path fill="#FFFFFF" d="M292.949,10.439l-8.484,31.662v16.624h-4.829V42.102l-8.484-31.662h4.897l6.001,22.004l6.002-22.004
		H292.949z"/>
</g>
</svg>
