<?xml version="1.0" standalone="no"?><!DOCTYPE svg PUBLIC "-//W3C//DTD SVG 1.1//EN" "http://www.w3.org/Graphics/SVG/1.1/DTD/svg11.dtd"><svg viewBox="0 0 24 24" version="1.1" xmlns="http://www.w3.org/2000/svg" xmlns:xlink="http://www.w3.org/1999/xlink"  ><defs xmlns="http://www.w3.org/1999/xhtml"> </defs><g id="map"><path d="M20.5,3c-0.1,0-0.1,0-0.2,0L15,5.1L9,3L3.4,4.9C3.2,5,3,5.1,3,5.4v15.1C3,20.8,3.2,21,3.5,21c0.1,0,0.1,0,0.2,0L9,18.9l6,2.1l5.6-1.9c0.2-0.1,0.4-0.3,0.4-0.5V3.5C21,3.2,20.8,3,20.5,3z M15,19l-6-2.1V5l6,2.1V19z"/></g></svg>