<?xml version="1.0" standalone="no"?><!DOCTYPE svg PUBLIC "-//W3C//DTD SVG 1.1//EN" "http://www.w3.org/Graphics/SVG/1.1/DTD/svg11.dtd"><svg viewBox="0 0 24 24" version="1.1" xmlns="http://www.w3.org/2000/svg" xmlns:xlink="http://www.w3.org/1999/xlink"  ><defs xmlns="http://www.w3.org/1999/xhtml"> </defs><g id="markunread"><path d="M22,6l2-2l-2-2l-2,2l-2-2l-2,2l-2-2l-2,2l-2-2L8,4L6,2L4,4L2,2L0,4l2,2L0,8l2,2l-2,2l2,2l-2,2l2,2l-2,2l2,2l2-2l2,2l2-2l2,2l2-2l2,2l2-2l2,2l2-2l2,2l2-2l-2-2l2-2l-2-2l2-2l-2-2l2-2L22,6z M20,8l-8,5L4,8V6l8,5l8-5V8z"/></g></svg>