<?xml version="1.0" standalone="no"?><!DOCTYPE svg PUBLIC "-//W3C//DTD SVG 1.1//EN" "http://www.w3.org/Graphics/SVG/1.1/DTD/svg11.dtd"><svg viewBox="0 0 24 24" version="1.1" xmlns="http://www.w3.org/2000/svg" xmlns:xlink="http://www.w3.org/1999/xlink"  ><defs xmlns="http://www.w3.org/1999/xhtml"> </defs><g id="memory"><path d="M15,9H9v6h6V9z M13,13h-2v-2h2V13z M21,11V9h-2V7c0-1.1-0.9-2-2-2h-2V3h-2v2h-2V3H9v2H7C5.9,5,5,5.9,5,7v2H3v2h2v2H3v2h2v2c0,1.1,0.9,2,2,2h2v2h2v-2h2v2h2v-2h2c1.1,0,2-0.9,2-2v-2h2v-2h-2v-2H21z M17,17H7V7h10V17z"/></g></svg>