<?xml version="1.0" standalone="no"?><!DOCTYPE svg PUBLIC "-//W3C//DTD SVG 1.1//EN" "http://www.w3.org/Graphics/SVG/1.1/DTD/svg11.dtd"><svg viewBox="0 0 24 24" version="1.1" xmlns="http://www.w3.org/2000/svg" xmlns:xlink="http://www.w3.org/1999/xlink"  ><defs xmlns="http://www.w3.org/1999/xhtml"> </defs><g id="nest-thermostat"><path d="M12,2C6.5,2,2,6.5,2,12c0,5.5,4.5,10,10,10c5.5,0,10-4.5,10-10C22,6.5,17.5,2,12,2z M12,5c1.6,0,3,0.5,4.2,1.4L14,8.6C13.4,8.2,12.7,8,12,8c-2.2,0-4,1.8-4,4c0,1.1,0.4,2.1,1.2,2.8l-2.1,2.1C5.8,15.7,5,13.9,5,12C5,8.1,8.1,5,12,5z M16.9,16.9l-2.1-2.1c0.7-0.7,1.2-1.7,1.2-2.8c0-0.7-0.2-1.4-0.6-2l2.2-2.2C18.5,9,19,10.4,19,12C19,13.9,18.2,15.7,16.9,16.9z"/></g></svg>