<?xml version="1.0" standalone="no"?><!DOCTYPE svg PUBLIC "-//W3C//DTD SVG 1.1//EN" "http://www.w3.org/Graphics/SVG/1.1/DTD/svg11.dtd"><svg viewBox="0 0 24 24" version="1.1" xmlns="http://www.w3.org/2000/svg" xmlns:xlink="http://www.w3.org/1999/xlink"  ><defs xmlns="http://www.w3.org/1999/xhtml"> </defs><g id="nfc"><path d="M20,2H4C2.9,2,2,2.9,2,4v16c0,1.1,0.9,2,2,2h16c1.1,0,2-0.9,2-2V4C22,2.9,21.1,2,20,2z M20,20H4V4h16V20z M18,6h-5c-1.1,0-2,0.9-2,2v2.3c-0.6,0.3-1,1-1,1.7c0,1.1,0.9,2,2,2c1.1,0,2-0.9,2-2c0-0.7-0.4-1.4-1-1.7V8h3v8H8V8h2V6H8H6v12h12V6z"/></g></svg>