<?xml version="1.0" standalone="no"?><!DOCTYPE svg PUBLIC "-//W3C//DTD SVG 1.1//EN" "http://www.w3.org/Graphics/SVG/1.1/DTD/svg11.dtd"><svg viewBox="0 0 24 24" version="1.1" xmlns="http://www.w3.org/2000/svg" xmlns:xlink="http://www.w3.org/1999/xlink"  ><defs xmlns="http://www.w3.org/1999/xhtml"> </defs><g id="pages"><path d="M3,5v6h5L7,7l4,1V3H5C3.9,3,3,3.9,3,5z M8,13H3v6c0,1.1,0.9,2,2,2h6v-4.8L7,17L8,13z M17,17l-4-0.8V21h6c1.1,0,2-0.9,2-2v-6h-4.8L17,17z M19,3h-6v5l4-1l-1,4h5V5C21,3.9,20.1,3,19,3z"/></g></svg>