<?xml version="1.0" standalone="no"?><!DOCTYPE svg PUBLIC "-//W3C//DTD SVG 1.1//EN" "http://www.w3.org/Graphics/SVG/1.1/DTD/svg11.dtd"><svg viewBox="0 0 24 24" version="1.1" xmlns="http://www.w3.org/2000/svg" xmlns:xlink="http://www.w3.org/1999/xlink"  ><defs xmlns="http://www.w3.org/1999/xhtml"> </defs><g id="party-mode"><path d="M20,4h-3.2L15,2H9L7.2,4H4C2.9,4,2,4.9,2,6v12c0,1.1,0.9,2,2,2h16c1.1,0,2-0.9,2-2V6C22,4.9,21.1,4,20,4z M12,7c1.6,0,3.1,0.8,4,2h-4c-1.7,0-3,1.3-3,3c0,0.4,0.1,0.7,0.2,1H7.1C7,12.7,7,12.3,7,12C7,9.2,9.2,7,12,7z M12,17c-1.6,0-3.1-0.8-4-2h4c1.7,0,3-1.3,3-3c0-0.4-0.1-0.7-0.2-1h2.1c0.1,0.3,0.1,0.7,0.1,1C17,14.8,14.8,17,12,17z"/></g></svg>