<?xml version="1.0" standalone="no"?><!DOCTYPE svg PUBLIC "-//W3C//DTD SVG 1.1//EN" "http://www.w3.org/Graphics/SVG/1.1/DTD/svg11.dtd"><svg viewBox="0 0 24 24" version="1.1" xmlns="http://www.w3.org/2000/svg" xmlns:xlink="http://www.w3.org/1999/xlink"  ><defs xmlns="http://www.w3.org/1999/xhtml"> </defs><g id="post-linkedin"><path d="M20,2H4C2.9,2,2,2.9,2,4l0,16c0,1.1,0.9,2,2,2h16c1.1,0,2-0.9,2-2V4C22,2.9,21.1,2,20,2z M8,19H5v-9h3V19z M6.5,8.3c-1,0-1.8-0.8-1.8-1.8s0.8-1.8,1.8-1.8s1.8,0.8,1.8,1.8S7.5,8.3,6.5,8.3z M19,19h-3v-5.3c0-0.8-0.7-1.5-1.5-1.5c-0.8,0-1.5,0.7-1.5,1.5V19h-3v-9h3v1.2c0.5-0.8,1.6-1.4,2.5-1.4c1.9,0,3.5,1.6,3.5,3.5V19z"/></g></svg>