<?xml version="1.0" standalone="no"?><!DOCTYPE svg PUBLIC "-//W3C//DTD SVG 1.1//EN" "http://www.w3.org/Graphics/SVG/1.1/DTD/svg11.dtd"><svg viewBox="0 0 24 24" version="1.1" xmlns="http://www.w3.org/2000/svg" xmlns:xlink="http://www.w3.org/1999/xlink"  ><defs xmlns="http://www.w3.org/1999/xhtml"> </defs><g id="receipt"><path d="M18,17H6v-2h12V17z M18,13H6v-2h12V13z M18,9H6V7h12V9z M3,22l1.5-1.5L6,22l1.5-1.5L9,22l1.5-1.5L12,22l1.5-1.5L15,22l1.5-1.5L18,22l1.5-1.5L21,22V2l-1.5,1.5L18,2l-1.5,1.5L15,2l-1.5,1.5L12,2l-1.5,1.5L9,2L7.5,3.5L6,2L4.5,3.5L3,2V22z"/></g></svg>