<?xml version="1.0" standalone="no"?><!DOCTYPE svg PUBLIC "-//W3C//DTD SVG 1.1//EN" "http://www.w3.org/Graphics/SVG/1.1/DTD/svg11.dtd"><svg viewBox="0 0 24 24" version="1.1" xmlns="http://www.w3.org/2000/svg" xmlns:xlink="http://www.w3.org/1999/xlink"  ><defs xmlns="http://www.w3.org/1999/xhtml"> </defs><g id="satellite"><path d="M12,2C6.5,2,2,6.5,2,12c0,5.5,4.5,10,10,10c5.5,0,10-4.5,10-10C22,6.5,17.5,2,12,2z M14.5,10l-4.2,4.2L8,12l-3.3,3.3C4.3,14.3,4,13.2,4,12c0-4.4,3.6-8,8-8c4.4,0,8,3.6,8,8c0,1-0.2,2-0.6,2.9L14.5,10z"/></g></svg>