<?xml version="1.0" standalone="no"?><!DOCTYPE svg PUBLIC "-//W3C//DTD SVG 1.1//EN" "http://www.w3.org/Graphics/SVG/1.1/DTD/svg11.dtd"><svg viewBox="0 0 24 24" version="1.1" xmlns="http://www.w3.org/2000/svg" xmlns:xlink="http://www.w3.org/1999/xlink"  ><defs xmlns="http://www.w3.org/1999/xhtml"> </defs><g id="screen-lock-landscape"><path d="M21,5H3C1.9,5,1,5.9,1,7v10c0,1.1,0.9,2,2,2h18c1.1,0,2-0.9,2-2V7C23,5.9,22.1,5,21,5z M19,17H5V7h14V17z M10,16h4c0.6,0,1-0.4,1-1v-3c0-0.6-0.4-1-1-1v-1c0-1.1-0.9-2-2-2c-1.1,0-2,0.9-2,2v1c-0.6,0-1,0.4-1,1v3C9,15.6,9.4,16,10,16z M10.8,10c0-0.7,0.5-1.2,1.2-1.2c0.7,0,1.2,0.5,1.2,1.2v1h-2.4V10z"/></g></svg>