<?xml version="1.0" standalone="no"?><!DOCTYPE svg PUBLIC "-//W3C//DTD SVG 1.1//EN" "http://www.w3.org/Graphics/SVG/1.1/DTD/svg11.dtd"><svg viewBox="0 0 24 24" version="1.1" xmlns="http://www.w3.org/2000/svg" xmlns:xlink="http://www.w3.org/1999/xlink"  ><defs xmlns="http://www.w3.org/1999/xhtml"> </defs><g id="shopping-basket"><path d="M17.2,9l-4.4-6.6C12.6,2.2,12.3,2,12,2c-0.3,0-0.6,0.1-0.8,0.4L6.8,9H2c-0.6,0-1,0.4-1,1c0,0.1,0,0.2,0,0.3l2.5,9.3c0.2,0.8,1,1.5,1.9,1.5h13c0.9,0,1.7-0.6,1.9-1.5l2.5-9.3c0-0.1,0-0.2,0-0.3c0-0.6-0.4-1-1-1H17.2z M9,9l3-4.4L15,9H9z M12,17c-1.1,0-2-0.9-2-2s0.9-2,2-2c1.1,0,2,0.9,2,2S13.1,17,12,17z"/></g></svg>