<?xml version="1.0" standalone="no"?><!DOCTYPE svg PUBLIC "-//W3C//DTD SVG 1.1//EN" "http://www.w3.org/Graphics/SVG/1.1/DTD/svg11.dtd"><svg viewBox="0 0 24 24" version="1.1" xmlns="http://www.w3.org/2000/svg" xmlns:xlink="http://www.w3.org/1999/xlink"  ><defs xmlns="http://www.w3.org/1999/xhtml"> </defs><g id="speaker"><path d="M17,2H7C5.9,2,5,2.9,5,4v16c0,1.1,0.9,2,2,2l10,0c1.1,0,2-0.9,2-2V4C19,2.9,18.1,2,17,2z M12,4c1.1,0,2,0.9,2,2s-0.9,2-2,2c-1.1,0-2-0.9-2-2S10.9,4,12,4z M12,20c-2.8,0-5-2.2-5-5s2.2-5,5-5c2.8,0,5,2.2,5,5S14.8,20,12,20z M12,12c-1.7,0-3,1.3-3,3c0,1.7,1.3,3,3,3c1.7,0,3-1.3,3-3C15,13.3,13.7,12,12,12z"/></g></svg>