<?xml version="1.0" standalone="no"?><!DOCTYPE svg PUBLIC "-//W3C//DTD SVG 1.1//EN" "http://www.w3.org/Graphics/SVG/1.1/DTD/svg11.dtd"><svg viewBox="0 0 24 24" version="1.1" xmlns="http://www.w3.org/2000/svg" xmlns:xlink="http://www.w3.org/1999/xlink"  ><defs xmlns="http://www.w3.org/1999/xhtml"> </defs><g id="swap-driving-apps"><circle cx="6.5" cy="15.5" r="1.5"/><circle cx="17.5" cy="15.5" r="1.5"/><path d="M18.9,7c-0.2-0.6-0.8-1-1.4-1H16H6V4L3,7l2,2l1,1V8h11.7l1.3,4H3v9c0,0.6,0.4,1,1,1h1c0.6,0,1-0.4,1-1v-1h12v1c0,0.6,0.4,1,1,1h1c0.6,0,1-0.4,1-1v-8L18.9,7z M6.5,17C5.7,17,5,16.3,5,15.5S5.7,14,6.5,14C7.3,14,8,14.7,8,15.5S7.3,17,6.5,17z M17.5,17c-0.8,0-1.5-0.7-1.5-1.5s0.7-1.5,1.5-1.5c0.8,0,1.5,0.7,1.5,1.5S18.3,17,17.5,17z M16,0v2H8v2h8v2l3-3L16,0z"/></g></svg>