<?xml version="1.0" standalone="no"?><!DOCTYPE svg PUBLIC "-//W3C//DTD SVG 1.1//EN" "http://www.w3.org/Graphics/SVG/1.1/DTD/svg11.dtd"><svg viewBox="0 0 24 24" version="1.1" xmlns="http://www.w3.org/2000/svg" xmlns:xlink="http://www.w3.org/1999/xlink"  ><defs xmlns="http://www.w3.org/1999/xhtml"> </defs><g id="switch-video"><path d="M18,9.5V6c0-0.6-0.4-1-1-1H3C2.4,5,2,5.4,2,6v12c0,0.6,0.4,1,1,1h14c0.6,0,1-0.4,1-1v-3.5l4,4v-13L18,9.5z M6.8,11c0,1.5,1.2,2.7,2.7,2.7c1.5,0,2.7-1.2,2.7-2.7h-1.7L13,8.5l2.5,2.5H14c0,2.5-2,4.5-4.5,4.5C7,15.5,5,13.5,5,11H6.8z"/></g></svg>