<?xml version="1.0" standalone="no"?><!DOCTYPE svg PUBLIC "-//W3C//DTD SVG 1.1//EN" "http://www.w3.org/Graphics/SVG/1.1/DTD/svg11.dtd"><svg viewBox="0 0 24 24" version="1.1" xmlns="http://www.w3.org/2000/svg" xmlns:xlink="http://www.w3.org/1999/xlink"  ><defs xmlns="http://www.w3.org/1999/xhtml"> </defs><g id="sync-problem"><path d="M3,12c0,2.2,0.9,4.2,2.4,5.6L3,20h6v-6l-2.2,2.2C5.7,15.2,5,13.7,5,12c0-2.6,1.7-4.8,4-5.7V4.3C5.6,5.2,3,8.3,3,12z M11,17h2v-2h-2V17z M21,4h-6v6l2.2-2.2C18.3,8.8,19,10.3,19,12c0,2.6-1.7,4.8-4,5.7v2.1c3.4-0.9,6-4,6-7.7c0-2.2-0.9-4.2-2.4-5.6L21,4z M11,13h2V7h-2V13z"/></g></svg>