<?xml version="1.0" standalone="no"?><!DOCTYPE svg PUBLIC "-//W3C//DTD SVG 1.1//EN" "http://www.w3.org/Graphics/SVG/1.1/DTD/svg11.dtd"><svg viewBox="0 0 24 24" version="1.1" xmlns="http://www.w3.org/2000/svg" xmlns:xlink="http://www.w3.org/1999/xlink"  ><defs xmlns="http://www.w3.org/1999/xhtml"> </defs><g id="unknown-2"><path d="M12,16h5v-1.5h-5V16z M12,2C6.5,2,2,6.5,2,12s4.5,10,10,10c5.5,0,10-4.5,10-10C22,6.5,17.5,2,12,2z M6,8h2V6h1.5v2h2v1.5h-2v2H8v-2H6V8z M12,20c-2.2,0-4.2-0.9-5.7-2.3L17.7,6.3C19.1,7.8,20,9.8,20,12C20,16.4,16.4,20,12,20z"/></g></svg>