<?xml version="1.0" standalone="no"?><!DOCTYPE svg PUBLIC "-//W3C//DTD SVG 1.1//EN" "http://www.w3.org/Graphics/SVG/1.1/DTD/svg11.dtd"><svg viewBox="0 0 24 24" version="1.1" xmlns="http://www.w3.org/2000/svg" xmlns:xlink="http://www.w3.org/1999/xlink"  ><defs xmlns="http://www.w3.org/1999/xhtml"> </defs><g id="usb"><path d="M15,7v4h1v2h-3V5h2l-3-4L9,5h2v8H8v-2.1C8.7,10.6,9.2,9.8,9.2,9c0-1.2-1-2.2-2.2-2.2c-1.2,0-2.2,1-2.2,2.2c0,0.8,0.5,1.6,1.2,1.9V13c0,1.1,0.9,2,2,2h3v3.1c-0.7,0.4-1.2,1.1-1.2,1.9c0,1.2,1,2.2,2.2,2.2c1.2,0,2.2-1,2.2-2.2c0-0.9-0.5-1.6-1.2-1.9V15h3c1.1,0,2-0.9,2-2v-2h1V7H15z"/></g></svg>