<?xml version="1.0" standalone="no"?><!DOCTYPE svg PUBLIC "-//W3C//DTD SVG 1.1//EN" "http://www.w3.org/Graphics/SVG/1.1/DTD/svg11.dtd"><svg viewBox="0 0 24 24" version="1.1" xmlns="http://www.w3.org/2000/svg" xmlns:xlink="http://www.w3.org/1999/xlink"  ><defs xmlns="http://www.w3.org/1999/xhtml"> </defs><g id="vibration"><path d="M0,15h2V9H0V15z M3,17h2V7H3V17z M22,9v6h2V9H22z M19,17h2V7h-2V17z M16.5,3h-9C6.7,3,6,3.7,6,4.5v15C6,20.3,6.7,21,7.5,21h9c0.8,0,1.5-0.7,1.5-1.5v-15C18,3.7,17.3,3,16.5,3z M16,19H8V5h8V19z"/></g></svg>