<?xml version="1.0" standalone="no"?><!DOCTYPE svg PUBLIC "-//W3C//DTD SVG 1.1//EN" "http://www.w3.org/Graphics/SVG/1.1/DTD/svg11.dtd"><svg viewBox="0 0 24 24" version="1.1" xmlns="http://www.w3.org/2000/svg" xmlns:xlink="http://www.w3.org/1999/xlink"  ><defs xmlns="http://www.w3.org/1999/xhtml"> </defs><g id="wb-irradescent"><path d="M5,14.5h14v-6H5V14.5z M11,0.6v2.9h2V0.6H11z M19,3l-1.8,1.8l1.4,1.4l1.8-1.8L19,3z M13,22.4v-2.9h-2v2.9C11.3,22.5,13,22.4,13,22.4z M20.5,18.5l-1.8-1.8l-1.4,1.4L19,20L20.5,18.5z M3.5,4.5l1.8,1.8l1.4-1.4L5,3L3.5,4.5z M5,20l1.8-1.8l-1.4-1.4l-1.8,1.8L5,20z"/></g></svg>