<?xml version="1.0" standalone="no"?><!DOCTYPE svg PUBLIC "-//W3C//DTD SVG 1.1//EN" "http://www.w3.org/Graphics/SVG/1.1/DTD/svg11.dtd"><svg viewBox="0 0 24 24" version="1.1" xmlns="http://www.w3.org/2000/svg" xmlns:xlink="http://www.w3.org/1999/xlink"  ><defs xmlns="http://www.w3.org/1999/xhtml"> </defs><g id="wb-sunny"><path d="M6.8,4.8L5,3L3.5,4.5l1.8,1.8L6.8,4.8z M4,10.5H1v2h3V10.5z M13,0.6h-2v2.9h2V0.6z M20.5,4.5L19,3l-1.8,1.8l1.4,1.4L20.5,4.5z M17.2,18.2L19,20l1.4-1.4l-1.8-1.8L17.2,18.2z M20,10.5v2h3v-2H20z M12,5.5c-3.3,0-6,2.7-6,6s2.7,6,6,6s6-2.7,6-6S15.3,5.5,12,5.5z M11,22.4c0.3,0,2,0,2,0v-2.9h-2V22.4z M3.5,18.5L5,20l1.8-1.8l-1.4-1.4L3.5,18.5z"/></g></svg>