<?xml version="1.0" standalone="no"?><!DOCTYPE svg PUBLIC "-//W3C//DTD SVG 1.1//EN" "http://www.w3.org/Graphics/SVG/1.1/DTD/svg11.dtd"><svg viewBox="0 0 24 24" version="1.1" xmlns="http://www.w3.org/2000/svg" xmlns:xlink="http://www.w3.org/1999/xlink"  ><defs xmlns="http://www.w3.org/1999/xhtml"> </defs><g id="wifi-tethering"><path d="M12,10c-1.1,0-2,0.9-2,2s0.9,2,2,2c1.1,0,2-0.9,2-2S13.1,10,12,10z M18,12c0-3.3-2.7-6-6-6c-3.3,0-6,2.7-6,6c0,2.2,1.2,4.1,3,5.2l1-1.7c-1.2-0.7-2-2-2-3.4c0-2.2,1.8-4,4-4s4,1.8,4,4c0,1.5-0.8,2.8-2,3.4l1,1.7C16.8,16.1,18,14.2,18,12z M12,2C6.5,2,2,6.5,2,12c0,3.7,2,6.9,5,8.6l1-1.7c-2.4-1.4-4-4-4-6.9c0-4.4,3.6-8,8-8s8,3.6,8,8c0,3-1.6,5.5-4,6.9l1,1.7c3-1.7,5-5,5-8.6C22,6.5,17.5,2,12,2z"/></g></svg>